<svg xmlns="http://www.w3.org/2000/svg" viewBox="0 0 32 32">
  <!-- Hoja tropical -->
  <path d="M16 2 C16 2, 28 8, 28 18 C28 25, 22 30, 16 30 C10 30, 4 25, 4 18 C4 8, 16 2, 16 2 Z"
        fill="#3B6D11"/>
  <!-- Nervadura central -->
  <path d="M16 4 L16 28"
        stroke="#BA7517" stroke-width="1.5" stroke-linecap="round" fill="none"/>
  <!-- Nervaduras laterales izquierda -->
  <path d="M16 12 C13 11, 9 13, 7 16" stroke="#BA7517" stroke-width="0.9" stroke-linecap="round" fill="none"/>
  <path d="M16 18 C13 17, 9 19, 7 22" stroke="#BA7517" stroke-width="0.9" stroke-linecap="round" fill="none"/>
  <!-- Nervaduras laterales derecha -->
  <path d="M16 12 C19 11, 23 13, 25 16" stroke="#BA7517" stroke-width="0.9" stroke-linecap="round" fill="none"/>
  <path d="M16 18 C19 17, 23 19, 25 22" stroke="#BA7517" stroke-width="0.9" stroke-linecap="round" fill="none"/>
</svg>
